# xmcd CD database file
#
# Track frame offsets:
#	151
#	10568
#	21726
#	33827
#	46148
#	56951
#	67690
#	77709
#	88978
#	102113
#	114048
#	125245
#	139160
#	147826
#	158293
#	170258
#	182101
#	194096
#	208977
#	219840
#	232592
#	243913
#	258140
#	269197
#	285476
#	297393
#	309489
#	323009
#	335353
#
# Disc length: 4632 seconds
#
# Revision: 0
# Processed by: cddbd v1.5.2PL0 Copyright (c) Steve Scherf et al.
# Submitted via: CDex 1.51
#
DISCID=9c12161d
DTITLE=Earl Bostic - Plays Jazz Standards
DYEAR=1900
DGENRE=Jazz
TTITLE0=Harlem Nocturne
TTITLE1=When Your Lover Has Gone
TTITLE2=Where or When
TTITLE3=Blue Skies
TTITLE4=Blue Moon
TTITLE5=Twilight Time
TTITLE6=Arrividerci Roma
TTITLE7=Smoke Gets in Your Eyes
TTITLE8=I'm Getting Sentimental Over You
TTITLE9=Moonglow
TTITLE10=Be My Love
TTITLE11=Third Man Theme
TTITLE12=Sentimental Journey
TTITLE13=Wo Cares
TTITLE14=East of the Sun
TTITLE15=The Very Thought of You
TTITLE16=Stairway to the Stars
TTITLE17=Always
TTITLE18=Deep Purple
TTITLE19=I Can't Give You Anything But Love
TTITLE20=Lover Come Back to Me
TTITLE21=You Go to My Head
TTITLE22=O sole mio
TTITLE23=Night and Day
TTITLE24=These Folish Things
TTITLE25=I Hear a Rhapsody
TTITLE26=Cherokee
TTITLE27=Sweet Lorraine
TTITLE28=Flamingo
EXTD=
EXTT0=
EXTT1=
EXTT2=
EXTT3=
EXTT4=
EXTT5=
EXTT6=
EXTT7=
EXTT8=
EXTT9=
EXTT10=
EXTT11=
EXTT12=
EXTT13=
EXTT14=
EXTT15=
EXTT16=
EXTT17=
EXTT18=
EXTT19=
EXTT20=
EXTT21=
EXTT22=
EXTT23=
EXTT24=
EXTT25=
EXTT26=
EXTT27=
EXTT28=
PLAYORDER=
